{
  "accessors": [
    {
      "bufferView": 2,
      "componentType": 5126,
      "count": 8251,
      "max": [
        3.3389298915863037,
        3.029400110244751,
        1.4508254528045654
      ],
      "min": [
        -3.501270055770874,
        -2.296220064163208,
        -6.2238898277282715
      ],
      "type": "VEC3"
    },
    {
      "bufferView": 2,
      "byteOffset": 99012,
      "componentType": 5126,
      "count": 8251,
      "max": [
        0.999427080154419,
        0.9994581937789917,
        0.9991750717163086
      ],
      "min": [
        -0.9994757175445557,
        -0.9996815919876099,
        -0.9999926090240479
      ],
      "type": "VEC3"
    },
    {
      "bufferView": 3,
      "componentType": 5126,
      "count": 8251,
      "max": [
        0.9999386668205261,
        0.9995271563529968,
        0.9999858736991882,
        1.0
      ],
      "min": [
        -0.9998424649238586,
        -0.9998123645782471,
        -0.9998059868812561,
        -1.0
      ],
      "type": "VEC4"
    },
    {
      "bufferView": 1,
      "componentType": 5126,
      "count": 8251,
      "max": [
        1.0,
        1.0
      ],
      "min": [
        0.0,
        5.960464477539063e-08
      ],
      "type": "VEC2"
    },
    {
      "bufferView": 1,
      "byteOffset": 66008,
      "componentType": 5126,
      "count": 8251,
      "max": [
        1.0,
        1.0
      ],
      "min": [
        0.0,
        5.960464477539063e-08
      ],
      "type": "VEC2"
    },
    {
      "bufferView": 0,
      "componentType": 5125,
      "count": 36552,
      "type": "SCALAR"
    }
  ],
  "asset": {
    "extras": {
      "author": "Mahonri (https://sketchfab.com/mahonri)",
      "license": "CC-BY-4.0 (http://creativecommons.org/licenses/by/4.0/)",
      "source": "https://sketchfab.com/3d-models/rock-man-yoga-statue-ea6e880a2f9c4c07a992a8bce3f20ed6",
      "title": "Rock Man Yoga Statue"
    },
    "generator": "Sketchfab-12.68.0",
    "version": "2.0"
  },
  "bufferViews": [
    {
      "buffer": 0,
      "byteLength": 146208,
      "name": "floatBufferViews",
      "target": 34963
    },
    {
      "buffer": 0,
      "byteLength": 132016,
      "byteOffset": 146208,
      "byteStride": 8,
      "name": "floatBufferViews",
      "target": 34962
    },
    {
      "buffer": 0,
      "byteLength": 198024,
      "byteOffset": 278224,
      "byteStride": 12,
      "name": "floatBufferViews",
      "target": 34962
    },
    {
      "buffer": 0,
      "byteLength": 132016,
      "byteOffset": 476248,
      "byteStride": 16,
      "name": "floatBufferViews",
      "target": 34962
    }
  ],
  "buffers": [
    {
      "byteLength": 608264,
      "uri": "scene.bin"
    }
  ],
  "images": [
    {
      "uri": "textures/material_baseColor.png"
    },
    {
      "uri": "textures/material_normal.png"
    }
  ],
  "materials": [
    {
      "name": "material",
      "normalTexture": {
        "index": 1
      },
      "pbrMetallicRoughness": {
        "baseColorTexture": {
          "index": 0
        },
        "metallicFactor": 0.0
      }
    }
  ],
  "meshes": [
    {
      "name": "Object_0",
      "primitives": [
        {
          "attributes": {
            "NORMAL": 1,
            "POSITION": 0,
            "TANGENT": 2,
            "TEXCOORD_0": 3,
            "TEXCOORD_1": 4
          },
          "indices": 5,
          "material": 0,
          "mode": 4
        }
      ]
    }
  ],
  "nodes": [
    {
      "children": [
        1
      ],
      "matrix": [
        4.335904121398926,
        0.0,
        0.0,
        0.0,
        0.0,
        9.627641176288395e-16,
        -4.335904121398926,
        0.0,
        0.0,
        4.335904121398926,
        9.627641176288395e-16,
        0.0,
        0.0,
        0.0,
        0.0,
        1.0
      ],
      "name": "Sketchfab_model"
    },
    {
      "children": [
        2
      ],
      "name": "root"
    },
    {
      "children": [
        3
      ],
      "matrix": [
        1.0,
        0.0,
        0.0,
        0.0,
        0.0,
        2.220446049250313e-16,
        1.0,
        0.0,
        0.0,
        -1.0,
        2.220446049250313e-16,
        0.0,
        0.0,
        0.0,
        0.0,
        1.0
      ],
      "name": "GLTF_SceneRootNode"
    },
    {
      "children": [
        4
      ],
      "matrix": [
        0.09028840065002441,
        0.0,
        0.0,
        0.0,
        0.0,
        -1.522148643869466e-08,
        0.09028840065002314,
        0.0,
        0.0,
        -0.09028840065002314,
        -1.522148643869466e-08,
        0.0,
        0.0,
        0.0,
        0.0,
        1.0
      ],
      "name": "rockManInstantLow_0"
    },
    {
      "mesh": 0,
      "name": "Object_4"
    }
  ],
  "samplers": [
    {
      "magFilter": 9729,
      "minFilter": 9987,
      "wrapS": 10497,
      "wrapT": 10497
    }
  ],
  "scene": 0,
  "scenes": [
    {
      "name": "Sketchfab_Scene",
      "nodes": [
        0
      ]
    }
  ],
  "textures": [
    {
      "sampler": 0,
      "source": 0
    },
    {
      "sampler": 0,
      "source": 1
    }
  ]
}
