{
  "accessors": [
    {
      "bufferView": 2,
      "componentType": 5126,
      "count": 31590,
      "max": [
        11.002241134643555,
        -0.8962501883506775,
        9.8252534866333
      ],
      "min": [
        -9.95418643951416,
        -14.505722045898438,
        -10.382437705993652
      ],
      "type": "VEC3"
    },
    {
      "bufferView": 2,
      "byteOffset": 379080,
      "componentType": 5126,
      "count": 31590,
      "max": [
        0.9999997615814209,
        1.0,
        0.9999995231628418
      ],
      "min": [
        -1.0,
        -0.9999998807907104,
        -0.9999998211860657
      ],
      "type": "VEC3"
    },
    {
      "bufferView": 3,
      "componentType": 5126,
      "count": 31590,
      "max": [
        0.3490196168422699,
        0.3450980484485626,
        0.25882354378700256,
        1.0
      ],
      "min": [
        0.01568627543747425,
        0.0,
        0.0,
        1.0
      ],
      "type": "VEC4"
    },
    {
      "bufferView": 1,
      "componentType": 5126,
      "count": 31590,
      "max": [
        0.9997280240058899,
        0.9997559785842896
      ],
      "min": [
        0.00024399999529123306,
        0.0002530000056140125
      ],
      "type": "VEC2"
    },
    {
      "bufferView": 0,
      "componentType": 5125,
      "count": 150000,
      "type": "SCALAR"
    }
  ],
  "asset": {
    "extras": {
      "author": "Austin Beaulier (https://sketchfab.com/Austin.Beaulier)",
      "license": "CC-BY-4.0 (http://creativecommons.org/licenses/by/4.0/)",
      "source": "https://sketchfab.com/3d-models/hand-carved-wooden-jewelry-box-0e8ede95be8b4f898271435fe4d8024f",
      "title": "Hand Carved Wooden Jewelry Box"
    },
    "generator": "Sketchfab-12.67.0",
    "version": "2.0"
  },
  "bufferViews": [
    {
      "buffer": 0,
      "byteLength": 600000,
      "name": "floatBufferViews",
      "target": 34963
    },
    {
      "buffer": 0,
      "byteLength": 252720,
      "byteOffset": 600000,
      "byteStride": 8,
      "name": "floatBufferViews",
      "target": 34962
    },
    {
      "buffer": 0,
      "byteLength": 758160,
      "byteOffset": 852720,
      "byteStride": 12,
      "name": "floatBufferViews",
      "target": 34962
    },
    {
      "buffer": 0,
      "byteLength": 505440,
      "byteOffset": 1610880,
      "byteStride": 16,
      "name": "floatBufferViews",
      "target": 34962
    }
  ],
  "buffers": [
    {
      "byteLength": 2116320,
      "uri": "scene.bin"
    }
  ],
  "extensionsUsed": [
    "KHR_materials_unlit"
  ],
  "images": [
    {
      "uri": "textures/HardCarvedwoodenboxfromindia_u1_v1_baseColor.jpeg"
    }
  ],
  "materials": [
    {
      "doubleSided": true,
      "emissiveFactor": [
        1.0,
        1.0,
        1.0
      ],
      "emissiveTexture": {
        "index": 0
      },
      "extensions": {
        "KHR_materials_unlit": {}
      },
      "name": "HardCarvedwoodenboxfromindia_u1_v1",
      "pbrMetallicRoughness": {
        "baseColorTexture": {
          "index": 0
        },
        "metallicFactor": 0.0
      }
    }
  ],
  "meshes": [
    {
      "name": "Object_0",
      "primitives": [
        {
          "attributes": {
            "COLOR_0": 2,
            "NORMAL": 1,
            "POSITION": 0,
            "TEXCOORD_0": 3
          },
          "indices": 4,
          "material": 0,
          "mode": 4
        }
      ]
    }
  ],
  "nodes": [
    {
      "children": [
        1
      ],
      "matrix": [
        0.0,
        -3.3306690738754696e-16,
        1.0,
        0.0,
        -3.3306690738754696e-16,
        -1.0,
        -2.220446049250313e-16,
        0.0,
        1.0,
        -4.440892098500626e-16,
        -1.1102230246251575e-16,
        0.0,
        0.8025727272033691,
        -7.979508399963381,
        7.176935672760008,
        1.0
      ],
      "name": "Sketchfab_model"
    },
    {
      "children": [
        2
      ],
      "name": "HardCarvedwoodenboxfromindia.obj.cleaner.materialmerger.gles"
    },
    {
      "mesh": 0,
      "name": "Object_2"
    }
  ],
  "samplers": [
    {
      "magFilter": 9729,
      "minFilter": 9987,
      "wrapS": 10497,
      "wrapT": 10497
    }
  ],
  "scene": 0,
  "scenes": [
    {
      "name": "Sketchfab_Scene",
      "nodes": [
        0
      ]
    }
  ],
  "textures": [
    {
      "sampler": 0,
      "source": 0
    }
  ]
}
