{
  "accessors": [
    {
      "bufferView": 2,
      "componentType": 5126,
      "count": 65532,
      "max": [
        1.9101399183273315,
        -4.564520359039307,
        1.8738118410110474
      ],
      "min": [
        -1.9467556476593018,
        -8.458028793334961,
        0.10304344445466995
      ],
      "type": "VEC3"
    },
    {
      "bufferView": 2,
      "byteOffset": 786384,
      "componentType": 5126,
      "count": 65532,
      "max": [
        0.9989727139472961,
        0.9999885559082031,
        0.998729407787323
      ],
      "min": [
        -0.9814667105674744,
        -0.999923825263977,
        -0.9633395075798035
      ],
      "type": "VEC3"
    },
    {
      "bufferView": 1,
      "componentType": 5126,
      "count": 65532,
      "max": [
        0.9179105758666992,
        0.9656223058700562
      ],
      "min": [
        0.0006345115252770483,
        0.07738208770751953
      ],
      "type": "VEC2"
    },
    {
      "bufferView": 0,
      "componentType": 5125,
      "count": 343401,
      "type": "SCALAR"
    },
    {
      "bufferView": 2,
      "byteOffset": 1572768,
      "componentType": 5126,
      "count": 65532,
      "max": [
        1.9105913639068604,
        -4.564900875091553,
        1.8735769987106323
      ],
      "min": [
        -1.9827430248260498,
        -8.462013244628906,
        0.02805042639374733
      ],
      "type": "VEC3"
    },
    {
      "bufferView": 2,
      "byteOffset": 2359152,
      "componentType": 5126,
      "count": 65532,
      "max": [
        0.9999929666519165,
        0.9999639391899109,
        0.9767987132072449
      ],
      "min": [
        -0.9999923706054688,
        -0.9999954104423523,
        -1.0
      ],
      "type": "VEC3"
    },
    {
      "bufferView": 1,
      "byteOffset": 524256,
      "componentType": 5126,
      "count": 65532,
      "max": [
        0.929568886756897,
        0.9996858239173889
      ],
      "min": [
        0.0005875825881958008,
        0.07454538345336914
      ],
      "type": "VEC2"
    },
    {
      "bufferView": 0,
      "byteOffset": 1373604,
      "componentType": 5125,
      "count": 326850,
      "type": "SCALAR"
    },
    {
      "bufferView": 2,
      "byteOffset": 3145536,
      "componentType": 5126,
      "count": 62599,
      "max": [
        1.909759521484375,
        -4.564520359039307,
        1.8702971935272217
      ],
      "min": [
        -1.9804173707962036,
        -8.45833683013916,
        0.02805042639374733
      ],
      "type": "VEC3"
    },
    {
      "bufferView": 2,
      "byteOffset": 3896724,
      "componentType": 5126,
      "count": 62599,
      "max": [
        0.9999929666519165,
        0.9999885559082031,
        0.998729407787323
      ],
      "min": [
        -0.9999871253967285,
        -0.9998975992202759,
        -0.9999999403953552
      ],
      "type": "VEC3"
    },
    {
      "bufferView": 1,
      "byteOffset": 1048512,
      "componentType": 5126,
      "count": 62599,
      "max": [
        0.928256094455719,
        0.9997130036354065
      ],
      "min": [
        0.0002602208696771413,
        0.07427310943603516
      ],
      "type": "VEC2"
    },
    {
      "bufferView": 0,
      "byteOffset": 2681004,
      "componentType": 5125,
      "count": 274566,
      "type": "SCALAR"
    }
  ],
  "asset": {
    "extras": {
      "author": "db4 (https://sketchfab.com/db4)",
      "license": "CC-BY-4.0 (http://creativecommons.org/licenses/by/4.0/)",
      "source": "https://sketchfab.com/3d-models/tibetan-singing-bowl-52228c0d0cb44e6cacdeb3851e0743fc",
      "title": "Tibetan Singing Bowl"
    },
    "generator": "Sketchfab-12.66.0",
    "version": "2.0"
  },
  "bufferViews": [
    {
      "buffer": 0,
      "byteLength": 3779268,
      "name": "floatBufferViews",
      "target": 34963
    },
    {
      "buffer": 0,
      "byteLength": 1549304,
      "byteOffset": 3779268,
      "byteStride": 8,
      "name": "floatBufferViews",
      "target": 34962
    },
    {
      "buffer": 0,
      "byteLength": 4647912,
      "byteOffset": 5328572,
      "byteStride": 12,
      "name": "floatBufferViews",
      "target": 34962
    }
  ],
  "buffers": [
    {
      "byteLength": 9976484,
      "uri": "scene.bin"
    }
  ],
  "extensionsRequired": [
    "KHR_materials_pbrSpecularGlossiness"
  ],
  "extensionsUsed": [
    "KHR_materials_pbrSpecularGlossiness"
  ],
  "images": [
    {
      "uri": "textures/Material0_diffuse.png"
    }
  ],
  "materials": [
    {
      "doubleSided": true,
      "extensions": {
        "KHR_materials_pbrSpecularGlossiness": {
          "diffuseFactor": [
            1.0,
            1.0,
            1.0,
            1.0
          ],
          "diffuseTexture": {
            "index": 0
          },
          "glossinessFactor": 0.0,
          "specularFactor": [
            0.0,
            0.0,
            0.0
          ]
        }
      },
      "name": "Material0"
    }
  ],
  "meshes": [
    {
      "name": "Stereo textured mesh_Material0_0",
      "primitives": [
        {
          "attributes": {
            "NORMAL": 1,
            "POSITION": 0,
            "TEXCOORD_0": 2
          },
          "indices": 3,
          "material": 0,
          "mode": 4
        }
      ]
    },
    {
      "name": "Stereo textured mesh_Material0_0",
      "primitives": [
        {
          "attributes": {
            "NORMAL": 5,
            "POSITION": 4,
            "TEXCOORD_0": 6
          },
          "indices": 7,
          "material": 0,
          "mode": 4
        }
      ]
    },
    {
      "name": "Stereo textured mesh_Material0_0",
      "primitives": [
        {
          "attributes": {
            "NORMAL": 9,
            "POSITION": 8,
            "TEXCOORD_0": 10
          },
          "indices": 11,
          "material": 0,
          "mode": 4
        }
      ]
    }
  ],
  "nodes": [
    {
      "children": [
        1
      ],
      "matrix": [
        0.09998464137292862,
        -0.0017527025454149026,
        -2.1570579406512866e-19,
        0.0,
        -0.0017518323175882144,
        -0.09993499666355543,
        -0.0031509001277521486,
        0.0,
        5.5225904456912035e-05,
        0.0031504162125351675,
        -0.09995035082027837,
        0.0,
        -0.013067247346043587,
        -7.2590084075927725,
        -5.589056491851808,
        1.0
      ],
      "name": "Sketchfab_model"
    },
    {
      "children": [
        2
      ],
      "matrix": [
        1.0,
        0.0,
        0.0,
        0.0,
        0.0,
        0.0,
        1.0,
        0.0,
        0.0,
        -1.0,
        0.0,
        0.0,
        0.0,
        0.0,
        0.0,
        1.0
      ],
      "name": "24893982a9ce4872b1edca9c08fe3d32.fbx"
    },
    {
      "children": [
        3
      ],
      "name": "RootNode"
    },
    {
      "children": [
        4,
        5,
        6
      ],
      "name": "Stereo textured mesh"
    },
    {
      "mesh": 0,
      "name": "Stereo textured mesh_Material0_0"
    },
    {
      "mesh": 1,
      "name": "Stereo textured mesh_Material0_0"
    },
    {
      "mesh": 2,
      "name": "Stereo textured mesh_Material0_0"
    }
  ],
  "samplers": [
    {
      "magFilter": 9729,
      "minFilter": 9987,
      "wrapS": 10497,
      "wrapT": 10497
    }
  ],
  "scene": 0,
  "scenes": [
    {
      "name": "Sketchfab_Scene",
      "nodes": [
        0
      ]
    }
  ],
  "textures": [
    {
      "sampler": 0,
      "source": 0
    }
  ]
}
