{
  "accessors": [
    {
      "bufferView": 2,
      "componentType": 5126,
      "count": 65532,
      "max": [
        0.6549894213676453,
        0.5078430771827698,
        0.9572256207466125
      ],
      "min": [
        0.020711004734039307,
        0.014615237712860107,
        0.0
      ],
      "type": "VEC3"
    },
    {
      "bufferView": 2,
      "byteOffset": 786384,
      "componentType": 5126,
      "count": 65532,
      "max": [
        0.9999946355819702,
        0.9999563097953796,
        0.9999778270721436
      ],
      "min": [
        -0.9999717473983765,
        -0.9999640583992004,
        -0.9999071955680847
      ],
      "type": "VEC3"
    },
    {
      "bufferView": 1,
      "componentType": 5126,
      "count": 65532,
      "max": [
        0.976792573928833,
        0.9975517392158508
      ],
      "min": [
        0.00244826078414917,
        0.05773293972015381
      ],
      "type": "VEC2"
    },
    {
      "bufferView": 0,
      "componentType": 5125,
      "count": 338784,
      "type": "SCALAR"
    },
    {
      "bufferView": 2,
      "byteOffset": 1572768,
      "componentType": 5126,
      "count": 51193,
      "max": [
        0.6554110050201416,
        0.4814808964729309,
        0.9416665434837341
      ],
      "min": [
        0.0,
        0.0,
        0.00035190582275390625
      ],
      "type": "VEC3"
    },
    {
      "bufferView": 2,
      "byteOffset": 2187084,
      "componentType": 5126,
      "count": 51193,
      "max": [
        0.9999658465385437,
        0.9999938011169434,
        0.9999439120292664
      ],
      "min": [
        -0.9999459385871887,
        -0.9999995827674866,
        -0.9999639987945557
      ],
      "type": "VEC3"
    },
    {
      "bufferView": 1,
      "byteOffset": 524256,
      "componentType": 5126,
      "count": 51193,
      "max": [
        0.9975518584251404,
        0.9975517392158508
      ],
      "min": [
        0.00244826078414917,
        0.024797677993774414
      ],
      "type": "VEC2"
    },
    {
      "bufferView": 0,
      "byteOffset": 1355136,
      "componentType": 5125,
      "count": 244680,
      "type": "SCALAR"
    }
  ],
  "asset": {
    "extras": {
      "author": "CODAME (https://sketchfab.com/codame)",
      "license": "CC-BY-4.0 (http://creativecommons.org/licenses/by/4.0/)",
      "source": "https://sketchfab.com/3d-models/anna-full-lotus-c76faa230c354d30a30f6a8e0753340b",
      "title": "Anna Full Lotus"
    },
    "generator": "Sketchfab-12.68.0",
    "version": "2.0"
  },
  "bufferViews": [
    {
      "buffer": 0,
      "byteLength": 2333856,
      "name": "floatBufferViews",
      "target": 34963
    },
    {
      "buffer": 0,
      "byteLength": 933800,
      "byteOffset": 2333856,
      "byteStride": 8,
      "name": "floatBufferViews",
      "target": 34962
    },
    {
      "buffer": 0,
      "byteLength": 2801400,
      "byteOffset": 3267656,
      "byteStride": 12,
      "name": "floatBufferViews",
      "target": 34962
    }
  ],
  "buffers": [
    {
      "byteLength": 6069056,
      "uri": "scene.bin"
    }
  ],
  "extensionsUsed": [
    "KHR_materials_unlit"
  ],
  "images": [
    {
      "uri": "textures/material_0_baseColor.jpeg"
    }
  ],
  "materials": [
    {
      "doubleSided": true,
      "extensions": {
        "KHR_materials_unlit": {}
      },
      "name": "material_0",
      "pbrMetallicRoughness": {
        "baseColorTexture": {
          "index": 0
        },
        "metallicFactor": 0.0
      }
    }
  ],
  "meshes": [
    {
      "name": "Object_0",
      "primitives": [
        {
          "attributes": {
            "NORMAL": 1,
            "POSITION": 0,
            "TEXCOORD_0": 2
          },
          "indices": 3,
          "material": 0,
          "mode": 4
        }
      ]
    },
    {
      "name": "Object_1",
      "primitives": [
        {
          "attributes": {
            "NORMAL": 5,
            "POSITION": 4,
            "TEXCOORD_0": 6
          },
          "indices": 7,
          "material": 0,
          "mode": 4
        }
      ]
    }
  ],
  "nodes": [
    {
      "children": [
        1
      ],
      "matrix": [
        1.0,
        0.0,
        0.0,
        0.0,
        0.0,
        2.220446049250313e-16,
        -1.0,
        0.0,
        0.0,
        1.0,
        2.220446049250313e-16,
        0.0,
        0.0,
        0.0,
        0.0,
        1.0
      ],
      "name": "Sketchfab_model"
    },
    {
      "children": [
        2
      ],
      "matrix": [
        1.0,
        0.0,
        0.0,
        0.0,
        0.0,
        1.0,
        0.0,
        0.0,
        0.0,
        0.0,
        1.0,
        0.0,
        -0.31363198161125183,
        -0.28396713733673096,
        -0.3416375517845154,
        1.0
      ],
      "name": "model_mesh.obj.cleaner.gles"
    },
    {
      "children": [
        3,
        4
      ],
      "name": "Object_2"
    },
    {
      "mesh": 0,
      "name": "Object_3"
    },
    {
      "mesh": 1,
      "name": "Object_4"
    }
  ],
  "samplers": [
    {
      "magFilter": 9729,
      "minFilter": 9987,
      "wrapS": 10497,
      "wrapT": 10497
    }
  ],
  "scene": 0,
  "scenes": [
    {
      "name": "Sketchfab_Scene",
      "nodes": [
        0
      ]
    }
  ],
  "textures": [
    {
      "sampler": 0,
      "source": 0
    }
  ]
}
