{
  "accessors": [
    {
      "bufferView": 2,
      "componentType": 5126,
      "count": 881,
      "max": [
        28.62156867980957,
        31.014339447021484,
        6.498592376708984
      ],
      "min": [
        -40.68407440185547,
        -38.29130554199219,
        -60.1289176940918
      ],
      "type": "VEC3"
    },
    {
      "bufferView": 2,
      "byteOffset": 10572,
      "componentType": 5126,
      "count": 881,
      "max": [
        1.0,
        1.0,
        1.0
      ],
      "min": [
        -1.0,
        -1.0,
        -1.0
      ],
      "type": "VEC3"
    },
    {
      "bufferView": 3,
      "componentType": 5126,
      "count": 881,
      "max": [
        1.0,
        1.0,
        1.0,
        1.0
      ],
      "min": [
        -1.0,
        -1.0,
        -1.0,
        1.0
      ],
      "type": "VEC4"
    },
    {
      "bufferView": 1,
      "componentType": 5126,
      "count": 881,
      "max": [
        0.999500036239624,
        0.9900559186935425
      ],
      "min": [
        0.0005000000237487257,
        0.0005000000237487257
      ],
      "type": "VEC2"
    },
    {
      "bufferView": 0,
      "componentType": 5125,
      "count": 3552,
      "type": "SCALAR"
    },
    {
      "bufferView": 2,
      "byteOffset": 21144,
      "componentType": 5126,
      "count": 41,
      "max": [
        18.982912063598633,
        21.56264877319336,
        0.7712864875793457
      ],
      "min": [
        -31.419336318969727,
        -28.839599609375,
        0.7712859511375427
      ],
      "type": "VEC3"
    },
    {
      "bufferView": 2,
      "byteOffset": 21636,
      "componentType": 5126,
      "count": 41,
      "max": [
        3.365922296438839e-08,
        2.777963636901859e-08,
        1.0
      ],
      "min": [
        -3.3659180331824246e-08,
        -2.0934969313657348e-08,
        1.0
      ],
      "type": "VEC3"
    },
    {
      "bufferView": 3,
      "byteOffset": 14096,
      "componentType": 5126,
      "count": 41,
      "max": [
        0.1869283765554428,
        -0.9823735356330872,
        2.777963459266175e-08,
        1.0
      ],
      "min": [
        -0.17440848052501678,
        -1.0,
        -2.099106310993193e-08,
        1.0
      ],
      "type": "VEC4"
    },
    {
      "bufferView": 1,
      "byteOffset": 7048,
      "componentType": 5126,
      "count": 41,
      "max": [
        1.0,
        1.0
      ],
      "min": [
        0.0,
        0.0
      ],
      "type": "VEC2"
    },
    {
      "bufferView": 0,
      "byteOffset": 14208,
      "componentType": 5125,
      "count": 192,
      "type": "SCALAR"
    },
    {
      "bufferView": 2,
      "byteOffset": 22128,
      "componentType": 5126,
      "count": 643,
      "max": [
        16.218708038330078,
        26.612396240234375,
        114.0752182006836
      ],
      "min": [
        -35.72370910644531,
        -23.769737243652344,
        -4.7520904541015625
      ],
      "type": "VEC3"
    },
    {
      "bufferView": 2,
      "byteOffset": 29844,
      "componentType": 5126,
      "count": 643,
      "max": [
        1.0,
        1.0,
        0.9992582201957703
      ],
      "min": [
        -1.0,
        -1.0,
        -1.0
      ],
      "type": "VEC3"
    },
    {
      "bufferView": 3,
      "byteOffset": 14752,
      "componentType": 5126,
      "count": 643,
      "max": [
        1.0,
        0.9999993443489075,
        0.972916305065155,
        1.0
      ],
      "min": [
        -0.9993520975112915,
        -0.9989714026451111,
        -0.9965126514434814,
        -1.0
      ],
      "type": "VEC4"
    },
    {
      "bufferView": 1,
      "byteOffset": 7376,
      "componentType": 5126,
      "count": 643,
      "max": [
        0.9977643489837646,
        0.999500036239624
      ],
      "min": [
        0.0005000000237487257,
        0.0005000000237487257
      ],
      "type": "VEC2"
    },
    {
      "bufferView": 0,
      "byteOffset": 14976,
      "componentType": 5125,
      "count": 2760,
      "type": "SCALAR"
    },
    {
      "bufferView": 2,
      "byteOffset": 37560,
      "componentType": 5126,
      "count": 315,
      "max": [
        51.580711364746094,
        58.663978576660156,
        0.0044994354248046875
      ],
      "min": [
        -49.164215087890625,
        -95.7034912109375,
        -70.23077392578125
      ],
      "type": "VEC3"
    },
    {
      "bufferView": 2,
      "byteOffset": 41340,
      "componentType": 5126,
      "count": 315,
      "max": [
        0.9987807869911194,
        0.9896617531776428,
        1.0
      ],
      "min": [
        -0.996767520904541,
        -0.030576510354876518,
        -0.9974832534790039
      ],
      "type": "VEC3"
    },
    {
      "bufferView": 3,
      "byteOffset": 25040,
      "componentType": 5126,
      "count": 315,
      "max": [
        1.0,
        0.5582267642021179,
        0.9976193308830261,
        1.0
      ],
      "min": [
        -0.9988189935684204,
        -0.8270198106765747,
        -0.9965553879737854,
        1.0
      ],
      "type": "VEC4"
    },
    {
      "bufferView": 1,
      "byteOffset": 12520,
      "componentType": 5126,
      "count": 315,
      "max": [
        1.0,
        1.0
      ],
      "min": [
        0.0,
        0.0
      ],
      "type": "VEC2"
    },
    {
      "bufferView": 1,
      "byteOffset": 15040,
      "componentType": 5126,
      "count": 315,
      "max": [
        1.0,
        1.0
      ],
      "min": [
        0.0,
        0.0
      ],
      "type": "VEC2"
    },
    {
      "bufferView": 1,
      "byteOffset": 17560,
      "componentType": 5126,
      "count": 315,
      "max": [
        1.0,
        1.0
      ],
      "min": [
        0.0,
        0.0
      ],
      "type": "VEC2"
    },
    {
      "bufferView": 0,
      "byteOffset": 26016,
      "componentType": 5125,
      "count": 1272,
      "type": "SCALAR"
    }
  ],
  "asset": {
    "extras": {
      "author": "sskjellestad (https://sketchfab.com/sskjellestad)",
      "license": "CC-BY-4.0 (http://creativecommons.org/licenses/by/4.0/)",
      "source": "https://sketchfab.com/3d-models/indoor-plant-lowpoly-b473cf63f2394f30abdcb525c3e1da31",
      "title": "Indoor Plant Lowpoly"
    },
    "generator": "Sketchfab-12.68.0",
    "version": "2.0"
  },
  "bufferViews": [
    {
      "buffer": 0,
      "byteLength": 31104,
      "name": "floatBufferViews",
      "target": 34963
    },
    {
      "buffer": 0,
      "byteLength": 20080,
      "byteOffset": 31104,
      "byteStride": 8,
      "name": "floatBufferViews",
      "target": 34962
    },
    {
      "buffer": 0,
      "byteLength": 45120,
      "byteOffset": 51184,
      "byteStride": 12,
      "name": "floatBufferViews",
      "target": 34962
    },
    {
      "buffer": 0,
      "byteLength": 30080,
      "byteOffset": 96304,
      "byteStride": 16,
      "name": "floatBufferViews",
      "target": 34962
    }
  ],
  "buffers": [
    {
      "byteLength": 126384,
      "uri": "scene.bin"
    }
  ],
  "images": [
    {
      "uri": "textures/FlowerPot_baseColor.png"
    },
    {
      "uri": "textures/FlowerPot_metallicRoughness.png"
    },
    {
      "uri": "textures/FlowerPot_normal.png"
    },
    {
      "uri": "textures/Dirt_baseColor.png"
    },
    {
      "uri": "textures/Dirt_metallicRoughness.png"
    },
    {
      "uri": "textures/Dirt_normal.png"
    },
    {
      "uri": "textures/Plant_baseColor.png"
    },
    {
      "uri": "textures/Plant_normal.png"
    },
    {
      "uri": "textures/Material_81_baseColor.png"
    },
    {
      "uri": "textures/Material_81_normal.png"
    }
  ],
  "materials": [
    {
      "doubleSided": true,
      "name": "FlowerPot",
      "normalTexture": {
        "index": 2
      },
      "pbrMetallicRoughness": {
        "baseColorTexture": {
          "index": 0
        },
        "metallicFactor": 0.0,
        "metallicRoughnessTexture": {
          "index": 1
        }
      }
    },
    {
      "doubleSided": true,
      "name": "Dirt",
      "normalTexture": {
        "index": 5
      },
      "pbrMetallicRoughness": {
        "baseColorTexture": {
          "index": 3
        },
        "metallicFactor": 0.0,
        "metallicRoughnessTexture": {
          "index": 4
        }
      }
    },
    {
      "doubleSided": true,
      "name": "Plant",
      "normalTexture": {
        "index": 7
      },
      "pbrMetallicRoughness": {
        "baseColorTexture": {
          "index": 6
        },
        "metallicFactor": 0.0,
        "roughnessFactor": 0.8929713596
      }
    },
    {
      "alphaMode": "BLEND",
      "doubleSided": true,
      "name": "Material_81",
      "normalTexture": {
        "index": 9
      },
      "pbrMetallicRoughness": {
        "baseColorTexture": {
          "index": 8
        },
        "metallicFactor": 0.0,
        "roughnessFactor": 0.8612010518
      }
    }
  ],
  "meshes": [
    {
      "name": "Plant_FlowerPot_0",
      "primitives": [
        {
          "attributes": {
            "NORMAL": 1,
            "POSITION": 0,
            "TANGENT": 2,
            "TEXCOORD_0": 3
          },
          "indices": 4,
          "material": 0,
          "mode": 4
        }
      ]
    },
    {
      "name": "Plant_Dirt_0",
      "primitives": [
        {
          "attributes": {
            "NORMAL": 6,
            "POSITION": 5,
            "TANGENT": 7,
            "TEXCOORD_0": 8
          },
          "indices": 9,
          "material": 1,
          "mode": 4
        }
      ]
    },
    {
      "name": "Plant001_Plant_0",
      "primitives": [
        {
          "attributes": {
            "NORMAL": 11,
            "POSITION": 10,
            "TANGENT": 12,
            "TEXCOORD_0": 13
          },
          "indices": 14,
          "material": 2,
          "mode": 4
        }
      ]
    },
    {
      "name": "Leafs_Material #81_0",
      "primitives": [
        {
          "attributes": {
            "NORMAL": 16,
            "POSITION": 15,
            "TANGENT": 17,
            "TEXCOORD_0": 18,
            "TEXCOORD_1": 19,
            "TEXCOORD_2": 20
          },
          "indices": 21,
          "material": 3,
          "mode": 4
        }
      ]
    }
  ],
  "nodes": [
    {
      "children": [
        1
      ],
      "matrix": [
        1.0,
        0.0,
        0.0,
        0.0,
        0.0,
        2.220446049250313e-16,
        -1.0,
        0.0,
        0.0,
        1.0,
        2.220446049250313e-16,
        0.0,
        0.0,
        0.0,
        0.0,
        1.0
      ],
      "name": "Sketchfab_model"
    },
    {
      "children": [
        2
      ],
      "matrix": [
        1.0,
        0.0,
        0.0,
        0.0,
        0.0,
        0.0,
        1.0,
        0.0,
        0.0,
        -1.0,
        0.0,
        0.0,
        0.0,
        0.0,
        0.0,
        1.0
      ],
      "name": "981839d4e350418bb937d1a232f2ca00.fbx"
    },
    {
      "children": [
        3,
        6,
        8
      ],
      "name": "RootNode"
    },
    {
      "children": [
        4,
        5
      ],
      "matrix": [
        1.0,
        0.0,
        0.0,
        0.0,
        0.0,
        2.220446049250313e-16,
        -1.0,
        0.0,
        0.0,
        1.0,
        2.220446049250313e-16,
        0.0,
        6.031252384185791,
        60.12890625,
        -3.6384692192077637,
        1.0
      ],
      "name": "Plant"
    },
    {
      "mesh": 0,
      "name": "Plant_FlowerPot_0"
    },
    {
      "mesh": 1,
      "name": "Plant_Dirt_0"
    },
    {
      "children": [
        7
      ],
      "matrix": [
        1.0,
        0.0,
        0.0,
        0.0,
        0.0,
        2.220446049250313e-16,
        -1.0,
        0.0,
        0.0,
        1.0,
        2.220446049250313e-16,
        0.0,
        6.031252384185791,
        60.12890625,
        -3.6384692192077637,
        1.0
      ],
      "name": "Plant001"
    },
    {
      "mesh": 2,
      "name": "Plant001_Plant_0"
    },
    {
      "children": [
        9
      ],
      "matrix": [
        -0.6427876273097095,
        -8.326672684688674e-17,
        0.7660444283313822,
        0.0,
        0.04641878957798079,
        0.6926084321504162,
        0.038949991034347244,
        0.0,
        -0.7631293940486924,
        0.08715580180076707,
        -0.6403416230039565,
        0.0,
        -21.40471649169922,
        140.62953186035156,
        -25.693220138549805,
        1.0
      ],
      "name": "Leafs"
    },
    {
      "mesh": 3,
      "name": "Leafs_Material #81_0"
    }
  ],
  "samplers": [
    {
      "magFilter": 9729,
      "minFilter": 9987,
      "wrapS": 10497,
      "wrapT": 10497
    }
  ],
  "scene": 0,
  "scenes": [
    {
      "name": "Sketchfab_Scene",
      "nodes": [
        0
      ]
    }
  ],
  "textures": [
    {
      "sampler": 0,
      "source": 0
    },
    {
      "sampler": 0,
      "source": 1
    },
    {
      "sampler": 0,
      "source": 2
    },
    {
      "sampler": 0,
      "source": 3
    },
    {
      "sampler": 0,
      "source": 4
    },
    {
      "sampler": 0,
      "source": 5
    },
    {
      "sampler": 0,
      "source": 6
    },
    {
      "sampler": 0,
      "source": 7
    },
    {
      "sampler": 0,
      "source": 8
    },
    {
      "sampler": 0,
      "source": 9
    }
  ]
}
