{
  "accessors": [
    {
      "bufferView": 2,
      "componentType": 5126,
      "count": 56783,
      "max": [
        266.908203125,
        1388.6695556640625,
        1010.0721435546875
      ],
      "min": [
        -144.75205993652344,
        -0.4530739188194275,
        -339.1946105957031
      ],
      "type": "VEC3"
    },
    {
      "bufferView": 2,
      "byteOffset": 681396,
      "componentType": 5126,
      "count": 56783,
      "max": [
        0.9999973773956299,
        0.9999653100967407,
        0.9999791383743286
      ],
      "min": [
        -0.999997615814209,
        -0.9999563694000244,
        -0.9999874830245972
      ],
      "type": "VEC3"
    },
    {
      "bufferView": 1,
      "componentType": 5126,
      "count": 56783,
      "max": [
        0.9894399046897888,
        0.9868894815444946
      ],
      "min": [
        0.00949172768741846,
        0.01200125738978386
      ],
      "type": "VEC2"
    },
    {
      "bufferView": 0,
      "componentType": 5125,
      "count": 321204,
      "type": "SCALAR"
    }
  ],
  "asset": {
    "extras": {
      "author": "manoeldarochadeoliveira (https://sketchfab.com/manoeldarochadeoliveira)",
      "license": "CC-BY-4.0 (http://creativecommons.org/licenses/by/4.0/)",
      "source": "https://sketchfab.com/3d-models/woman-in-yoga-pose-83e7db2fc6fa4ddd88c79141851bb901",
      "title": "Woman in Yoga pose"
    },
    "generator": "Sketchfab-12.67.0",
    "version": "2.0"
  },
  "bufferViews": [
    {
      "buffer": 0,
      "byteLength": 1284816,
      "name": "floatBufferViews",
      "target": 34963
    },
    {
      "buffer": 0,
      "byteLength": 454264,
      "byteOffset": 1284816,
      "byteStride": 8,
      "name": "floatBufferViews",
      "target": 34962
    },
    {
      "buffer": 0,
      "byteLength": 1362792,
      "byteOffset": 1739080,
      "byteStride": 12,
      "name": "floatBufferViews",
      "target": 34962
    }
  ],
  "buffers": [
    {
      "byteLength": 3101872,
      "uri": "scene.bin"
    }
  ],
  "images": [
    {
      "uri": "textures/skin_baseColor.png"
    }
  ],
  "materials": [
    {
      "doubleSided": true,
      "name": "skin",
      "pbrMetallicRoughness": {
        "baseColorTexture": {
          "index": 0
        },
        "metallicFactor": 0.0,
        "roughnessFactor": 0.8239417257461427
      }
    }
  ],
  "meshes": [
    {
      "name": "yoga_pose_skin_0",
      "primitives": [
        {
          "attributes": {
            "NORMAL": 1,
            "POSITION": 0,
            "TEXCOORD_0": 2
          },
          "indices": 3,
          "material": 0,
          "mode": 4
        }
      ]
    }
  ],
  "nodes": [
    {
      "children": [
        1
      ],
      "matrix": [
        0.011152161285281181,
        0.0,
        0.0,
        0.0,
        0.0,
        2.4762772466504893e-18,
        -0.011152161285281181,
        0.0,
        0.0,
        0.011152161285281181,
        2.4762772466504893e-18,
        0.0,
        0.0,
        0.0,
        0.0,
        1.0
      ],
      "name": "Sketchfab_model"
    },
    {
      "children": [
        2
      ],
      "matrix": [
        1.0,
        0.0,
        0.0,
        0.0,
        0.0,
        0.0,
        1.0,
        0.0,
        0.0,
        -1.0,
        0.0,
        0.0,
        0.0,
        0.0,
        0.0,
        1.0
      ],
      "name": "89b8984257164db2a82b7ab11c511fc5.fbx"
    },
    {
      "children": [
        3
      ],
      "name": "RootNode"
    },
    {
      "children": [
        4
      ],
      "matrix": [
        0.10000001639127731,
        0.0,
        0.0,
        0.0,
        0.0,
        0.10000001639127731,
        0.0,
        0.0,
        0.0,
        0.0,
        0.10000001639127731,
        0.0,
        0.0,
        0.0,
        0.0,
        1.0
      ],
      "name": "yoga_pose"
    },
    {
      "mesh": 0,
      "name": "yoga_pose_skin_0"
    }
  ],
  "samplers": [
    {
      "magFilter": 9729,
      "minFilter": 9987,
      "wrapS": 10497,
      "wrapT": 10497
    }
  ],
  "scene": 0,
  "scenes": [
    {
      "name": "Sketchfab_Scene",
      "nodes": [
        0
      ]
    }
  ],
  "textures": [
    {
      "sampler": 0,
      "source": 0
    }
  ]
}
