{
  "accessors": [
    {
      "bufferView": 2,
      "componentType": 5126,
      "count": 65532,
      "max": [
        11914.83203125,
        28316.458984375,
        21003.203125
      ],
      "min": [
        1262.39404296875,
        13957.5390625,
        0.0
      ],
      "type": "VEC3"
    },
    {
      "bufferView": 2,
      "byteOffset": 786384,
      "componentType": 5126,
      "count": 65532,
      "max": [
        0.9999980330467224,
        0.9999483227729797,
        0.9999926090240479
      ],
      "min": [
        -0.9999962449073792,
        -0.9999974370002747,
        -0.999998152256012
      ],
      "type": "VEC3"
    },
    {
      "bufferView": 1,
      "componentType": 5126,
      "count": 65532,
      "max": [
        0.9980329871177673,
        0.9980319738388062
      ],
      "min": [
        0.00393499992787838,
        0.00393499992787838
      ],
      "type": "VEC2"
    },
    {
      "bufferView": 0,
      "componentType": 5125,
      "count": 339699,
      "type": "SCALAR"
    },
    {
      "bufferView": 2,
      "byteOffset": 1572768,
      "componentType": 5126,
      "count": 65532,
      "max": [
        11995.5859375,
        21354.16015625,
        21324.193359375
      ],
      "min": [
        0.0,
        0.0,
        8460.431640625
      ],
      "type": "VEC3"
    },
    {
      "bufferView": 2,
      "byteOffset": 2359152,
      "componentType": 5126,
      "count": 65532,
      "max": [
        0.9999805092811584,
        0.9999956488609314,
        0.9999620318412781
      ],
      "min": [
        -0.9999927878379822,
        -0.9977576732635498,
        -0.9999989867210388
      ],
      "type": "VEC3"
    },
    {
      "bufferView": 1,
      "byteOffset": 524256,
      "componentType": 5126,
      "count": 65532,
      "max": [
        0.9979100227355957,
        0.9980319738388062
      ],
      "min": [
        0.00393499992787838,
        0.00393499992787838
      ],
      "type": "VEC2"
    },
    {
      "bufferView": 0,
      "byteOffset": 1358796,
      "componentType": 5125,
      "count": 344082,
      "type": "SCALAR"
    },
    {
      "bufferView": 2,
      "byteOffset": 3145536,
      "componentType": 5126,
      "count": 65532,
      "max": [
        13186.55078125,
        26499.505859375,
        21389.212890625
      ],
      "min": [
        14.38330078125,
        29.07421875,
        8573.34375
      ],
      "type": "VEC3"
    },
    {
      "bufferView": 2,
      "byteOffset": 3931920,
      "componentType": 5126,
      "count": 65532,
      "max": [
        0.9999711513519287,
        0.9999912977218628,
        0.9999743700027466
      ],
      "min": [
        -0.9999986290931702,
        -0.9997555017471313,
        -0.9999538064002991
      ],
      "type": "VEC3"
    },
    {
      "bufferView": 1,
      "byteOffset": 1048512,
      "componentType": 5126,
      "count": 65532,
      "max": [
        0.9980329871177673,
        0.9980319738388062
      ],
      "min": [
        0.00393499992787838,
        0.00393499992787838
      ],
      "type": "VEC2"
    },
    {
      "bufferView": 0,
      "byteOffset": 2735124,
      "componentType": 5125,
      "count": 341001,
      "type": "SCALAR"
    },
    {
      "bufferView": 2,
      "byteOffset": 4718304,
      "componentType": 5126,
      "count": 36735,
      "max": [
        10740.5224609375,
        26504.74609375,
        20608.603515625
      ],
      "min": [
        2916.0703125,
        13994.46484375,
        10758.19921875
      ],
      "type": "VEC3"
    },
    {
      "bufferView": 2,
      "byteOffset": 5159124,
      "componentType": 5126,
      "count": 36735,
      "max": [
        0.9998851418495178,
        0.9998366236686707,
        0.9999426007270813
      ],
      "min": [
        -0.9999346733093262,
        -0.9998155236244202,
        -0.9999827146530151
      ],
      "type": "VEC3"
    },
    {
      "bufferView": 1,
      "byteOffset": 1572768,
      "componentType": 5126,
      "count": 36735,
      "max": [
        0.9980329871177673,
        0.9980319738388062
      ],
      "min": [
        0.00393499992787838,
        0.011189999990165234
      ],
      "type": "VEC2"
    },
    {
      "bufferView": 0,
      "byteOffset": 4099128,
      "componentType": 5125,
      "count": 193161,
      "type": "SCALAR"
    }
  ],
  "asset": {
    "extras": {
      "author": "Geoffrey Marchal (https://sketchfab.com/geoffreymarchal)",
      "license": "CC-BY-NC-4.0 (http://creativecommons.org/licenses/by-nc/4.0/)",
      "source": "https://sketchfab.com/3d-models/the-elephant-god-ganesha-7eb66480140c40d0b0184b22fc014300",
      "title": "The elephant god Ganesha"
    },
    "generator": "Sketchfab-12.68.0",
    "version": "2.0"
  },
  "bufferViews": [
    {
      "buffer": 0,
      "byteLength": 4871772,
      "name": "floatBufferViews",
      "target": 34963
    },
    {
      "buffer": 0,
      "byteLength": 1866648,
      "byteOffset": 4871772,
      "byteStride": 8,
      "name": "floatBufferViews",
      "target": 34962
    },
    {
      "buffer": 0,
      "byteLength": 5599944,
      "byteOffset": 6738420,
      "byteStride": 12,
      "name": "floatBufferViews",
      "target": 34962
    }
  ],
  "buffers": [
    {
      "byteLength": 12338364,
      "uri": "scene.bin"
    }
  ],
  "images": [
    {
      "uri": "textures/Material_0_baseColor.jpeg"
    },
    {
      "uri": "textures/Material_0_metallicRoughness.png"
    }
  ],
  "materials": [
    {
      "doubleSided": true,
      "name": "Material_0",
      "pbrMetallicRoughness": {
        "baseColorTexture": {
          "index": 0
        },
        "metallicFactor": 0.0,
        "metallicRoughnessTexture": {
          "index": 1
        }
      }
    }
  ],
  "meshes": [
    {
      "name": "Object_0",
      "primitives": [
        {
          "attributes": {
            "NORMAL": 1,
            "POSITION": 0,
            "TEXCOORD_0": 2
          },
          "indices": 3,
          "material": 0,
          "mode": 4
        }
      ]
    },
    {
      "name": "Object_1",
      "primitives": [
        {
          "attributes": {
            "NORMAL": 5,
            "POSITION": 4,
            "TEXCOORD_0": 6
          },
          "indices": 7,
          "material": 0,
          "mode": 4
        }
      ]
    },
    {
      "name": "Object_2",
      "primitives": [
        {
          "attributes": {
            "NORMAL": 9,
            "POSITION": 8,
            "TEXCOORD_0": 10
          },
          "indices": 11,
          "material": 0,
          "mode": 4
        }
      ]
    },
    {
      "name": "Object_3",
      "primitives": [
        {
          "attributes": {
            "NORMAL": 13,
            "POSITION": 12,
            "TEXCOORD_0": 14
          },
          "indices": 15,
          "material": 0,
          "mode": 4
        }
      ]
    }
  ],
  "nodes": [
    {
      "children": [
        1
      ],
      "matrix": [
        -0.6679182052612305,
        -0.02994463779032247,
        0.7436320185661316,
        0.0,
        0.0,
        0.9991902112960815,
        0.040235478430986626,
        0.0,
        -0.7442346811294556,
        0.026874007657170445,
        -0.6673773527145386,
        0.0,
        -3110.66455078125,
        -5566.999511718749,
        -4350.670410156251,
        1.0
      ],
      "name": "Sketchfab_model"
    },
    {
      "children": [
        2,
        3,
        4,
        5
      ],
      "matrix": [
        1.0,
        0.0,
        0.0,
        0.0,
        0.0,
        1.0,
        0.0,
        0.0,
        0.0,
        0.0,
        1.0,
        0.0,
        -5803.00390625,
        -14358.6201171875,
        -16645.427734375,
        1.0
      ],
      "name": "ganesha.obj.cleaner.gles"
    },
    {
      "mesh": 0,
      "name": "Object_2"
    },
    {
      "mesh": 1,
      "name": "Object_3"
    },
    {
      "mesh": 2,
      "name": "Object_4"
    },
    {
      "mesh": 3,
      "name": "Object_5"
    }
  ],
  "samplers": [
    {
      "magFilter": 9729,
      "minFilter": 9987,
      "wrapS": 10497,
      "wrapT": 10497
    },
    {
      "magFilter": 9729,
      "minFilter": 9729,
      "wrapS": 10497,
      "wrapT": 10497
    }
  ],
  "scene": 0,
  "scenes": [
    {
      "name": "Sketchfab_Scene",
      "nodes": [
        0
      ]
    }
  ],
  "textures": [
    {
      "sampler": 0,
      "source": 0
    },
    {
      "sampler": 1,
      "source": 1
    }
  ]
}
