{
  "accessors": [
    {
      "bufferView": 2,
      "componentType": 5126,
      "count": 248,
      "max": [
        4.203883171081543,
        3.1758859157562256,
        7.72012186050415
      ],
      "min": [
        -1.0181549787521362,
        -1.4854400157928467,
        -2.8172569274902344
      ],
      "type": "VEC3"
    },
    {
      "bufferView": 2,
      "byteOffset": 2976,
      "componentType": 5126,
      "count": 248,
      "max": [
        0.49788230657577515,
        0.9985584616661072,
        0.8035066723823547
      ],
      "min": [
        -0.5657694935798645,
        0.03766603022813797,
        -0.8237026929855347
      ],
      "type": "VEC3"
    },
    {
      "bufferView": 0,
      "componentType": 5125,
      "count": 717,
      "type": "SCALAR"
    },
    {
      "bufferView": 2,
      "byteOffset": 5952,
      "componentType": 5126,
      "count": 38,
      "max": [
        1.6812649965286255,
        2.3887860774993896,
        3.456048011779785
      ],
      "min": [
        -0.3324820101261139,
        1.8280359506607056,
        1.7510579824447632
      ],
      "type": "VEC3"
    },
    {
      "bufferView": 2,
      "byteOffset": 6408,
      "componentType": 5126,
      "count": 38,
      "max": [
        0.11227401345968246,
        0.9985584616661072,
        0.19420497119426727
      ],
      "min": [
        -0.46961337327957153,
        0.8025789856910706,
        -0.595894992351532
      ],
      "type": "VEC3"
    },
    {
      "bufferView": 1,
      "componentType": 5126,
      "count": 38,
      "max": [
        0.008589999750256538,
        1.0
      ],
      "min": [
        0.0,
        0.9934849739074707
      ],
      "type": "VEC2"
    },
    {
      "bufferView": 0,
      "byteOffset": 2868,
      "componentType": 5125,
      "count": 111,
      "type": "SCALAR"
    },
    {
      "bufferView": 2,
      "byteOffset": 6864,
      "componentType": 5126,
      "count": 15023,
      "max": [
        10.09642219543457,
        6.022093772888184,
        13.721760749816895
      ],
      "min": [
        -6.949277877807617,
        -11.215624809265137,
        -10.162840843200684
      ],
      "type": "VEC3"
    },
    {
      "bufferView": 2,
      "byteOffset": 187140,
      "componentType": 5126,
      "count": 15023,
      "max": [
        0.9999979734420776,
        0.9971166253089905,
        0.9989448189735413
      ],
      "min": [
        -0.9999629855155945,
        -0.9999951124191284,
        -0.999977171421051
      ],
      "type": "VEC3"
    },
    {
      "bufferView": 1,
      "byteOffset": 304,
      "componentType": 5126,
      "count": 15023,
      "max": [
        0.997422993183136,
        0.9980340003967285
      ],
      "min": [
        0.0010130000300705433,
        0.06500600278377533
      ],
      "type": "VEC2"
    },
    {
      "bufferView": 0,
      "byteOffset": 3312,
      "componentType": 5125,
      "count": 61137,
      "type": "SCALAR"
    }
  ],
  "asset": {
    "extras": {
      "author": "dievitacola (https://sketchfab.com/dievitacola)",
      "license": "CC-BY-NC-4.0 (http://creativecommons.org/licenses/by-nc/4.0/)",
      "source": "https://sketchfab.com/3d-models/golden-ephant-a5dc34a9c618427bb034ed556c4af73e",
      "title": "Golden Ephant"
    },
    "generator": "Sketchfab-12.68.0",
    "version": "2.0"
  },
  "bufferViews": [
    {
      "buffer": 0,
      "byteLength": 247860,
      "name": "floatBufferViews",
      "target": 34963
    },
    {
      "buffer": 0,
      "byteLength": 120488,
      "byteOffset": 247860,
      "byteStride": 8,
      "name": "floatBufferViews",
      "target": 34962
    },
    {
      "buffer": 0,
      "byteLength": 367416,
      "byteOffset": 368348,
      "byteStride": 12,
      "name": "floatBufferViews",
      "target": 34962
    }
  ],
  "buffers": [
    {
      "byteLength": 735764,
      "uri": "scene.bin"
    }
  ],
  "images": [
    {
      "uri": "textures/Material_2_baseColor.jpeg"
    },
    {
      "uri": "textures/Material_2_metallicRoughness.png"
    }
  ],
  "materials": [
    {
      "doubleSided": true,
      "name": "Material_0",
      "pbrMetallicRoughness": {
        "baseColorFactor": [
          0.219526199729269,
          0.09758734714186201,
          0.042311410620809,
          1.0
        ],
        "metallicFactor": 0.0,
        "roughnessFactor": 0.2
      }
    },
    {
      "doubleSided": true,
      "name": "Material_1",
      "pbrMetallicRoughness": {
        "baseColorFactor": [
          0.2195261997292689,
          0.09758734714186201,
          0.04231141062080896,
          1.0
        ],
        "metallicFactor": 0.0,
        "roughnessFactor": 0.2
      }
    },
    {
      "name": "Material_2",
      "occlusionTexture": {
        "index": 1
      },
      "pbrMetallicRoughness": {
        "baseColorTexture": {
          "index": 0
        },
        "metallicFactor": 0.5,
        "metallicRoughnessTexture": {
          "index": 1
        },
        "roughnessFactor": 0.56
      }
    }
  ],
  "meshes": [
    {
      "name": "Object_0",
      "primitives": [
        {
          "attributes": {
            "NORMAL": 1,
            "POSITION": 0
          },
          "indices": 2,
          "material": 0,
          "mode": 4
        }
      ]
    },
    {
      "name": "Object_1",
      "primitives": [
        {
          "attributes": {
            "NORMAL": 4,
            "POSITION": 3,
            "TEXCOORD_0": 5
          },
          "indices": 6,
          "material": 1,
          "mode": 4
        }
      ]
    },
    {
      "name": "Object_2",
      "primitives": [
        {
          "attributes": {
            "NORMAL": 8,
            "POSITION": 7,
            "TEXCOORD_0": 9
          },
          "indices": 10,
          "material": 2,
          "mode": 4
        }
      ]
    }
  ],
  "nodes": [
    {
      "children": [
        1
      ],
      "matrix": [
        0.1256631706300304,
        -3.8710230496841115e-18,
        0.033696357954615674,
        0.0,
        -3.611071439760962e-18,
        -0.13010255992412567,
        0.0,
        0.0,
        0.033696357954615674,
        -9.857424419157965e-19,
        -0.1256631706300304,
        0.0,
        -0.40726563334465027,
        -0.8167767524719247,
        3.908048391342163,
        1.0
      ],
      "name": "Sketchfab_model"
    },
    {
      "children": [
        2,
        3,
        4
      ],
      "name": "goldenelephant-exported.obj.cleaner"
    },
    {
      "mesh": 0,
      "name": "Object_2"
    },
    {
      "mesh": 1,
      "name": "Object_3"
    },
    {
      "mesh": 2,
      "name": "Object_4"
    }
  ],
  "samplers": [
    {
      "magFilter": 9729,
      "minFilter": 9987,
      "wrapS": 10497,
      "wrapT": 10497
    }
  ],
  "scene": 0,
  "scenes": [
    {
      "name": "Sketchfab_Scene",
      "nodes": [
        0
      ]
    }
  ],
  "textures": [
    {
      "sampler": 0,
      "source": 0
    },
    {
      "sampler": 0,
      "source": 1
    }
  ]
}
